# xmcd
#
# Track frame offsets:
#   150
#   32175
#   55497
#   76444
#   111578
#   130006
#   148274
#   166514
#   195718
#   223347
#   245367
#
# Disc length: 3468 seconds
#
# Revision: 0
# Processed by: cddbd v1.5.1PL0 Copyright (c) Steve Scherf et al.
# Submitted via: GXTranscoder 2.0.1939
#
DISCID=a50d8a0b
DTITLE=Campion Jack Dupree - The Blues Jubilee Album
DYEAR=1984
DGENRE=blues
TTITLE0=freedom
TTITLE1=ramblin´ boogie
TTITLE2=jump for jack
TTITLE3=nobody loves me
TTITLE4=gesabbel
TTITLE5=blues for champ
TTITLE6=married man
TTITLE7=i hate to be alone
TTITLE8=when victoria spivey was living
TTITLE9=rocky mountain
TTITLE10=mehr gesabbel
EXTD=
EXTT0=
EXTT1=
EXTT2=
EXTT3=
EXTT4=
EXTT5=
EXTT6=
EXTT7=
EXTT8=
EXTT9=
EXTT10=
PLAYORDER=
